<svg version="1.1" viewBox="0.0 0.0 481.0 367.0" fill="none" stroke="none" stroke-linecap="square" stroke-miterlimit="10" width="481" height="367" xmlns:xlink="http://www.w3.org/1999/xlink" xmlns="http://www.w3.org/2000/svg"><path fill="#ffffff" d="M0 0L481.0 0L481.0 367.0L0 367.0L0 0Z" fill-rule="nonzero"/><path stroke="#000000" stroke-width="1.0" stroke-linecap="butt" stroke-opacity="0.0" d="M104.5 261.5L462.5 261.5" fill-rule="nonzero"/><path stroke="#000000" stroke-width="1.0" stroke-linecap="butt" stroke-opacity="0.0" d="M104.5 211.5L462.5 211.5" fill-rule="nonzero"/><path stroke="#000000" stroke-width="1.0" stroke-linecap="butt" stroke-opacity="0.0" d="M104.5 162.5L462.5 162.5" fill-rule="nonzero"/><path stroke="#000000" stroke-width="1.0" stroke-linecap="butt" stroke-opacity="0.0" d="M104.5 112.5L462.5 112.5" fill-rule="nonzero"/><path stroke="#000000" stroke-width="1.0" stroke-linecap="butt" stroke-opacity="0.0" d="M104.5 62.5L462.5 62.5" fill-rule="nonzero"/><path stroke="#000000" stroke-width="1.0" stroke-linecap="butt" d="M104.5 296.5L104.5 25.5" fill-rule="nonzero"/><clipPath id="id_0"><path d="M104.35 25.35L462.65 25.35L462.65 296.65L104.35 296.65L104.35 25.35Z" clip-rule="nonzero"/></clipPath><path stroke="#000000" stroke-width="2.0" stroke-linecap="butt" stroke-opacity="0.0" clip-path="url(#id_0)" d="M172.0 297.0L128.0 297.0L128.0 27.0C128.0 25.89543 128.89543 25.0 130.0 25.0L170.0 25.0C171.10457 25.0 172.0 25.89543 172.0 27.0Z" fill-rule="nonzero"/><path fill="#4285f4" clip-path="url(#id_0)" d="M172.0 297.0L128.0 297.0L128.0 27.0C128.0 25.89543 128.89543 25.0 130.0 25.0L170.0 25.0C171.10457 25.0 172.0 25.89543 172.0 27.0Z" fill-rule="nonzero"/><path stroke="#000000" stroke-width="2.0" stroke-linecap="butt" stroke-opacity="0.0" clip-path="url(#id_0)" d="M239.0 297.0L195.0 297.0L195.0 88.0C195.0 86.89543 195.89543 86.0 197.0 86.0L237.0 86.0C238.10457 86.0 239.0 86.89543 239.0 88.0Z" fill-rule="nonzero"/><path fill="#4285f4" clip-path="url(#id_0)" d="M239.0 297.0L195.0 297.0L195.0 88.0C195.0 86.89543 195.89543 86.0 197.0 86.0L237.0 86.0C238.10457 86.0 239.0 86.89543 239.0 88.0Z" fill-rule="nonzero"/><path stroke="#000000" stroke-width="2.0" stroke-linecap="butt" stroke-opacity="0.0" clip-path="url(#id_0)" d="M306.0 297.0L262.0 297.0L262.0 147.0C262.0 145.89543 262.89542 145.0 264.0 145.0L304.0 145.0C305.10458 145.0 306.0 145.89543 306.0 147.0Z" fill-rule="nonzero"/><path fill="#4285f4" clip-path="url(#id_0)" d="M306.0 297.0L262.0 297.0L262.0 147.0C262.0 145.89543 262.89542 145.0 264.0 145.0L304.0 145.0C305.10458 145.0 306.0 145.89543 306.0 147.0Z" fill-rule="nonzero"/><path stroke="#000000" stroke-width="2.0" stroke-linecap="butt" stroke-opacity="0.0" clip-path="url(#id_0)" d="M372.0 297.0L328.0 297.0L328.0 212.0C328.0 210.89543 328.89542 210.0 330.0 210.0L370.0 210.0C371.10458 210.0 372.0 210.89543 372.0 212.0Z" fill-rule="nonzero"/><path fill="#4285f4" clip-path="url(#id_0)" d="M372.0 297.0L328.0 297.0L328.0 212.0C328.0 210.89543 328.89542 210.0 330.0 210.0L370.0 210.0C371.10458 210.0 372.0 210.89543 372.0 212.0Z" fill-rule="nonzero"/><path stroke="#000000" stroke-width="2.0" stroke-linecap="butt" stroke-opacity="0.0" clip-path="url(#id_0)" d="M439.0 297.0L395.0 297.0L395.0 275.0C395.0 273.89542 395.89542 273.0 397.0 273.0L437.0 273.0C438.10458 273.0 439.0 273.89542 439.0 275.0Z" fill-rule="nonzero"/><path fill="#4285f4" clip-path="url(#id_0)" d="M439.0 297.0L395.0 297.0L395.0 275.0C395.0 273.89542 395.89542 273.0 397.0 273.0L437.0 273.0C438.10458 273.0 439.0 273.89542 439.0 275.0Z" fill-rule="nonzero"/><path stroke="#000000" stroke-width="1.0" stroke-linecap="butt" d="M98.5 296.5L110.5 296.5" fill-rule="nonzero"/><path stroke="#000000" stroke-width="1.0" stroke-linecap="butt" d="M98.5 246.5L110.5 246.5" fill-rule="nonzero"/><path stroke="#000000" stroke-width="1.0" stroke-linecap="butt" d="M98.5 196.5L110.5 196.5" fill-rule="nonzero"/><path stroke="#000000" stroke-width="1.0" stroke-linecap="butt" d="M98.5 146.5L110.5 146.5" fill-rule="nonzero"/><path stroke="#000000" stroke-width="1.0" stroke-linecap="butt" d="M98.5 97.5L110.5 97.5" fill-rule="nonzero"/><path stroke="#000000" stroke-width="1.0" stroke-linecap="butt" d="M98.5 47.5L110.5 47.5" fill-rule="nonzero"/><path stroke="#ffffff" stroke-width="3.0" stroke-linejoin="round" stroke-linecap="round" d="M135.29688 10.35L129.70312 10.35L129.70312 9.56875L132.65625 6.2875Q133.3125 5.5375 133.5625 5.084375Q133.8125 4.615625 133.8125 4.115625Q133.8125 3.44375 133.40625 3.021875Q133.01562 2.584375 132.32812 2.584375Q131.53125 2.584375 131.07812 3.053125Q130.625 3.50625 130.625 4.334375L129.54688 4.334375Q129.54688 3.146875 130.29688 2.428125Q131.0625 1.69375 132.32812 1.69375Q133.53125 1.69375 134.21875 2.31875Q134.90625 2.94375 134.90625 3.990625Q134.90625 5.240625 133.29688 6.990625L131.01562 9.459375L135.29688 9.459375L135.29688 10.35ZM142.21875 2.428125L138.6875 10.35L137.54688 10.35L141.0625 2.709375L136.45312 2.709375L136.45312 1.81875L142.21875 1.81875L142.21875 2.428125ZM148.28125 7.490625L149.46875 7.490625L149.46875 8.365625L148.28125 8.365625L148.28125 10.35L147.20312 10.35L147.20312 8.365625L143.3125 8.365625L143.3125 7.725L147.125 1.81875L148.28125 1.81875L148.28125 7.490625ZM144.54688 7.490625L147.20312 7.490625L147.20312 3.303125L147.0625 3.5375L144.54688 7.490625ZM156.29688 10.35L150.70312 10.35L150.70312 9.56875L153.65625 6.2875Q154.3125 5.5375 154.5625 5.084375Q154.8125 4.615625 154.8125 4.115625Q154.8125 3.44375 154.40625 3.021875Q154.01562 2.584375 153.32812 2.584375Q152.53125 2.584375 152.07812 3.053125Q151.625 3.50625 151.625 4.334375L150.54688 4.334375Q150.54688 3.146875 151.29688 2.428125Q152.0625 1.69375 153.32812 1.69375Q154.53125 1.69375 155.21875 2.31875Q155.90625 2.94375 155.90625 3.990625Q155.90625 5.240625 154.29688 6.990625L152.01562 9.459375L156.29688 9.459375L156.29688 10.35ZM159.28125 5.553125L160.09375 5.553125Q160.875 5.5375 161.3125 5.146875Q161.75 4.75625 161.75 4.084375Q161.75 2.584375 160.25 2.584375Q159.54688 2.584375 159.125 2.990625Q158.71875 3.396875 158.71875 4.053125L157.625 4.053125Q157.625 3.0375 158.35938 2.365625Q159.10938 1.69375 160.25 1.69375Q161.45312 1.69375 162.14062 2.334375Q162.82812 2.975 162.82812 4.115625Q162.82812 4.678125 162.46875 5.19375Q162.10938 5.709375 161.48438 5.975Q162.1875 6.19375 162.5625 6.709375Q162.95312 7.225 162.95312 7.975Q162.95312 9.115625 162.20312 9.803125Q161.45312 10.475 160.25 10.475Q159.0625 10.475 158.29688 9.81875Q157.54688 9.1625 157.54688 8.1L158.64062 8.1Q158.64062 8.771875 159.07812 9.178125Q159.51562 9.584375 160.26562 9.584375Q161.04688 9.584375 161.45312 9.178125Q161.875 8.75625 161.875 7.990625Q161.875 7.25625 161.42188 6.865625Q160.96875 6.459375 160.09375 6.44375L159.28125 6.44375L159.28125 5.553125ZM169.89062 4.0375Q169.89062 4.678125 169.54688 5.178125Q169.20312 5.678125 168.64062 5.959375Q169.29688 6.240625 169.6875 6.803125Q170.07812 7.35 170.07812 8.053125Q170.07812 9.146875 169.32812 9.81875Q168.59375 10.475 167.375 10.475Q166.14062 10.475 165.39062 9.81875Q164.65625 9.146875 164.65625 8.053125Q164.65625 7.35 165.03125 6.803125Q165.40625 6.240625 166.07812 5.959375Q165.51562 5.678125 165.1875 5.178125Q164.85938 4.678125 164.85938 4.0375Q164.85938 2.959375 165.54688 2.334375Q166.23438 1.69375 167.375 1.69375Q168.5 1.69375 169.1875 2.334375Q169.89062 2.959375 169.89062 4.0375ZM169.0 8.021875Q169.0 7.303125 168.54688 6.865625Q168.09375 6.4125 167.35938 6.4125Q166.625 6.4125 166.17188 6.865625Q165.73438 7.303125 165.73438 8.0375Q165.73438 8.75625 166.17188 9.178125Q166.60938 9.584375 167.375 9.584375Q168.125 9.584375 168.5625 9.1625Q169.0 8.740625 169.0 8.021875ZM167.375 2.584375Q166.73438 2.584375 166.32812 2.990625Q165.9375 3.38125 165.9375 4.06875Q165.9375 4.709375 166.32812 5.115625Q166.71875 5.521875 167.35938 5.521875Q168.01562 5.521875 168.40625 5.115625Q168.79688 4.709375 168.79688 4.06875Q168.79688 3.4125 168.39062 3.00625Q167.98438 2.584375 167.375 2.584375Z" fill-rule="nonzero"/><path fill="#4285f4" d="M135.29688 10.35L129.70312 10.35L129.70312 9.56875L132.65625 6.2875004Q133.3125 5.5375004 133.5625 5.0843754Q133.8125 4.6156254 133.8125 4.1156254Q133.8125 3.4437504 133.40625 3.0218754Q133.01562 2.5843754 132.32812 2.5843754Q131.53125 2.5843754 131.07812 3.0531254Q130.625 3.5062504 130.625 4.3343754L129.54688 4.3343754Q129.54688 3.1468754 130.29688 2.4281254Q131.0625 1.6937504 132.32812 1.6937504Q133.53125 1.6937504 134.21875 2.3187504Q134.90625 2.9437504 134.90625 3.9906254Q134.90625 5.2406254 133.29688 6.9906254L131.01562 9.459375L135.29688 9.459375L135.29688 10.35ZM142.21875 2.4281254L138.6875 10.35L137.54688 10.35L141.0625 2.7093754L136.45312 2.7093754L136.45312 1.8187504L142.21875 1.8187504L142.21875 2.4281254ZM148.28125 7.4906254L149.46875 7.4906254L149.46875 8.365625L148.28125 8.365625L148.28125 10.35L147.20312 10.35L147.20312 8.365625L143.3125 8.365625L143.3125 7.7250004L147.125 1.8187504L148.28125 1.8187504L148.28125 7.4906254ZM144.54688 7.4906254L147.20312 7.4906254L147.20312 3.3031254L147.0625 3.5375004L144.54688 7.4906254ZM156.29688 10.35L150.70312 10.35L150.70312 9.56875L153.65625 6.2875004Q154.3125 5.5375004 154.5625 5.0843754Q154.8125 4.6156254 154.8125 4.1156254Q154.8125 3.4437504 154.40625 3.0218754Q154.01562 2.5843754 153.32812 2.5843754Q152.53125 2.5843754 152.07812 3.0531254Q151.625 3.5062504 151.625 4.3343754L150.54688 4.3343754Q150.54688 3.1468754 151.29688 2.4281254Q152.0625 1.6937504 153.32812 1.6937504Q154.53125 1.6937504 155.21875 2.3187504Q155.90625 2.9437504 155.90625 3.9906254Q155.90625 5.2406254 154.29688 6.9906254L152.01562 9.459375L156.29688 9.459375L156.29688 10.35ZM159.28125 5.5531254L160.09375 5.5531254Q160.875 5.5375004 161.3125 5.1468754Q161.75 4.7562504 161.75 4.0843754Q161.75 2.5843754 160.25 2.5843754Q159.54688 2.5843754 159.125 2.9906254Q158.71875 3.3968754 158.71875 4.0531254L157.625 4.0531254Q157.625 3.0375004 158.35938 2.3656254Q159.10938 1.6937504 160.25 1.6937504Q161.45312 1.6937504 162.14062 2.3343754Q162.82812 2.9750004 162.82812 4.1156254Q162.82812 4.6781254 162.46875 5.1937504Q162.10938 5.7093754 161.48438 5.9750004Q162.1875 6.1937504 162.5625 6.7093754Q162.95312 7.2250004 162.95312 7.9750004Q162.95312 9.115625 162.20312 9.803125Q161.45312 10.475 160.25 10.475Q159.0625 10.475 158.29688 9.81875Q157.54688 9.1625 157.54688 8.1L158.64062 8.1Q158.64062 8.771875 159.07812 9.178125Q159.51562 9.584375 160.26562 9.584375Q161.04688 9.584375 161.45312 9.178125Q161.875 8.75625 161.875 7.9906254Q161.875 7.2562504 161.42188 6.8656254Q160.96875 6.4593754 160.09375 6.4437504L159.28125 6.4437504L159.28125 5.5531254ZM169.89062 4.0375004Q169.89062 4.6781254 169.54688 5.1781254Q169.20312 5.6781254 168.64062 5.9593754Q169.29688 6.2406254 169.6875 6.8031254Q170.07812 7.3500004 170.07812 8.053125Q170.07812 9.146875 169.32812 9.81875Q168.59375 10.475 167.375 10.475Q166.14062 10.475 165.39062 9.81875Q164.65625 9.146875 164.65625 8.053125Q164.65625 7.3500004 165.03125 6.8031254Q165.40625 6.2406254 166.07812 5.9593754Q165.51562 5.6781254 165.1875 5.1781254Q164.85938 4.6781254 164.85938 4.0375004Q164.85938 2.9593754 165.54688 2.3343754Q166.23438 1.6937504 167.375 1.6937504Q168.5 1.6937504 169.1875 2.3343754Q169.89062 2.9593754 169.89062 4.0375004ZM169.0 8.021875Q169.0 7.3031254 168.54688 6.8656254Q168.09375 6.4125004 167.35938 6.4125004Q166.625 6.4125004 166.17188 6.8656254Q165.73438 7.3031254 165.73438 8.0375Q165.73438 8.75625 166.17188 9.178125Q166.60938 9.584375 167.375 9.584375Q168.125 9.584375 168.5625 9.1625Q169.0 8.740625 169.0 8.021875ZM167.375 2.5843754Q166.73438 2.5843754 166.32812 2.9906254Q165.9375 3.3812504 165.9375 4.0687504Q165.9375 4.7093754 166.32812 5.1156254Q166.71875 5.5218754 167.35938 5.5218754Q168.01562 5.5218754 168.40625 5.1156254Q168.79688 4.7093754 168.79688 4.0687504Q168.79688 3.4125004 168.39062 3.0062504Q167.98438 2.5843754 167.375 2.5843754Z" fill-rule="nonzero"/><path stroke="#4285f4" stroke-width="3.0" stroke-linejoin="round" stroke-linecap="round" d="M203.76562 103.09603L202.6875 103.09603L202.6875 95.87728L200.5 96.67416L200.5 95.68978L203.60938 94.51791L203.76562 94.51791L203.76562 103.09603ZM211.46875 94.56478L211.46875 95.47103L211.26562 95.47103Q210.0 95.50228 209.25 96.23666Q208.5 96.95541 208.375 98.26791Q209.0625 97.50228 210.21875 97.50228Q211.32812 97.50228 212.0 98.28353Q212.67188 99.06478 212.67188 100.31478Q212.67188 101.62728 211.95312 102.42416Q211.23438 103.22103 210.01562 103.22103Q208.79688 103.22103 208.03125 102.28353Q207.28125 101.33041 207.28125 99.84603L207.28125 99.43978Q207.28125 97.08041 208.28125 95.83041Q209.28125 94.58041 211.26562 94.56478L211.46875 94.56478ZM210.04688 98.40853Q209.48438 98.40853 209.01562 98.73666Q208.54688 99.06478 208.35938 99.58041L208.35938 99.97103Q208.35938 101.03353 208.82812 101.67416Q209.3125 102.31478 210.01562 102.31478Q210.75 102.31478 211.17188 101.78353Q211.59375 101.23666 211.59375 100.36166Q211.59375 99.48666 211.17188 98.95541Q210.75 98.40853 210.04688 98.40853ZM218.78125 100.23666L219.96875 100.23666L219.96875 101.11166L218.78125 101.11166L218.78125 103.09603L217.70312 103.09603L217.70312 101.11166L213.8125 101.11166L213.8125 100.47103L217.625 94.56478L218.78125 94.56478L218.78125 100.23666ZM215.04688 100.23666L217.70312 100.23666L217.70312 96.04916L217.5625 96.28353L215.04688 100.23666ZM225.46875 94.56478L225.46875 95.47103L225.26562 95.47103Q224.0 95.50228 223.25 96.23666Q222.5 96.95541 222.375 98.26791Q223.0625 97.50228 224.21875 97.50228Q225.32812 97.50228 226.0 98.28353Q226.67188 99.06478 226.67188 100.31478Q226.67188 101.62728 225.95312 102.42416Q225.23438 103.22103 224.01562 103.22103Q222.79688 103.22103 222.03125 102.28353Q221.28125 101.33041 221.28125 99.84603L221.28125 99.43978Q221.28125 97.08041 222.28125 95.83041Q223.28125 94.58041 225.26562 94.56478L225.46875 94.56478ZM224.04688 98.40853Q223.48438 98.40853 223.01562 98.73666Q222.54688 99.06478 222.35938 99.58041L222.35938 99.97103Q222.35938 101.03353 222.82812 101.67416Q223.3125 102.31478 224.01562 102.31478Q224.75 102.31478 225.17188 101.78353Q225.59375 101.23666 225.59375 100.36166Q225.59375 99.48666 225.17188 98.95541Q224.75 98.40853 224.04688 98.40853ZM233.79688 103.09603L228.20312 103.09603L228.20312 102.31478L231.15625 99.03353Q231.8125 98.28353 232.0625 97.83041Q232.3125 97.36166 232.3125 96.86166Q232.3125 96.18978 231.90625 95.76791Q231.51562 95.33041 230.82812 95.33041Q230.03125 95.33041 229.57812 95.79916Q229.125 96.25228 229.125 97.08041L228.04688 97.08041Q228.04688 95.89291 228.79688 95.17416Q229.5625 94.43978 230.82812 94.43978Q232.03125 94.43978 232.71875 95.06478Q233.40625 95.68978 233.40625 96.73666Q233.40625 97.98666 231.79688 99.73666L229.51562 102.20541L233.79688 102.20541L233.79688 103.09603Z" fill-rule="nonzero"/><path fill="#ffffff" d="M203.76562 103.09603L202.6875 103.09603L202.6875 95.87728L200.5 96.67416L200.5 95.68978L203.60938 94.51791L203.76562 94.51791L203.76562 103.09603ZM211.46875 94.56478L211.46875 95.47103L211.26562 95.47103Q210.0 95.50228 209.25 96.23666Q208.5 96.95541 208.375 98.26791Q209.0625 97.50228 210.21875 97.50228Q211.32812 97.50228 212.0 98.28353Q212.67188 99.06478 212.67188 100.31478Q212.67188 101.62728 211.95312 102.42416Q211.23438 103.22103 210.01562 103.22103Q208.79688 103.22103 208.03125 102.28353Q207.28125 101.33041 207.28125 99.84603L207.28125 99.43978Q207.28125 97.08041 208.28125 95.83041Q209.28125 94.58041 211.26562 94.56478L211.46875 94.56478ZM210.04688 98.40853Q209.48438 98.40853 209.01562 98.73666Q208.54688 99.06478 208.35938 99.58041L208.35938 99.97103Q208.35938 101.03353 208.82812 101.67416Q209.3125 102.31478 210.01562 102.31478Q210.75 102.31478 211.17188 101.78353Q211.59375 101.23666 211.59375 100.36166Q211.59375 99.48666 211.17188 98.95541Q210.75 98.40853 210.04688 98.40853ZM218.78125 100.23666L219.96875 100.23666L219.96875 101.11166L218.78125 101.11166L218.78125 103.09603L217.70312 103.09603L217.70312 101.11166L213.8125 101.11166L213.8125 100.47103L217.625 94.56478L218.78125 94.56478L218.78125 100.23666ZM215.04688 100.23666L217.70312 100.23666L217.70312 96.04916L217.5625 96.28353L215.04688 100.23666ZM225.46875 94.56478L225.46875 95.47103L225.26562 95.47103Q224.0 95.50228 223.25 96.23666Q222.5 96.95541 222.375 98.26791Q223.0625 97.50228 224.21875 97.50228Q225.32812 97.50228 226.0 98.28353Q226.67188 99.06478 226.67188 100.31478Q226.67188 101.62728 225.95312 102.42416Q225.23438 103.22103 224.01562 103.22103Q222.79688 103.22103 222.03125 102.28353Q221.28125 101.33041 221.28125 99.84603L221.28125 99.43978Q221.28125 97.08041 222.28125 95.83041Q223.28125 94.58041 225.26562 94.56478L225.46875 94.56478ZM224.04688 98.40853Q223.48438 98.40853 223.01562 98.73666Q222.54688 99.06478 222.35938 99.58041L222.35938 99.97103Q222.35938 101.03353 222.82812 101.67416Q223.3125 102.31478 224.01562 102.31478Q224.75 102.31478 225.17188 101.78353Q225.59375 101.23666 225.59375 100.36166Q225.59375 99.48666 225.17188 98.95541Q224.75 98.40853 224.04688 98.40853ZM233.79688 103.09603L228.20312 103.09603L228.20312 102.31478L231.15625 99.03353Q231.8125 98.28353 232.0625 97.83041Q232.3125 97.36166 232.3125 96.86166Q232.3125 96.18978 231.90625 95.76791Q231.51562 95.33041 230.82812 95.33041Q230.03125 95.33041 229.57812 95.79916Q229.125 96.25228 229.125 97.08041L228.04688 97.08041Q228.04688 95.89291 228.79688 95.17416Q229.5625 94.43978 230.82812 94.43978Q232.03125 94.43978 232.71875 95.06478Q233.40625 95.68978 233.40625 96.73666Q233.40625 97.98666 231.79688 99.73666L229.51562 102.20541L233.79688 102.20541L233.79688 103.09603Z" fill-rule="nonzero"/><path stroke="#4285f4" stroke-width="3.0" stroke-linejoin="round" stroke-linecap="round" d="M274.26562 161.75893L273.1875 161.75893L273.1875 154.54018L271.0 155.33705L271.0 154.35268L274.10938 153.1808L274.26562 153.1808L274.26562 161.75893ZM283.0625 158.1183Q283.0625 160.02455 282.40625 160.96205Q281.76562 161.88393 280.375 161.88393Q279.01562 161.88393 278.35938 160.97768Q277.70312 160.07143 277.67188 158.25893L277.67188 156.82143Q277.67188 154.9308 278.3125 154.02455Q278.96875 153.10268 280.35938 153.10268Q281.73438 153.10268 282.39062 153.9933Q283.04688 154.8683 283.0625 156.71205L283.0625 158.1183ZM281.96875 156.63393Q281.96875 155.25893 281.57812 154.63393Q281.20312 153.9933 280.35938 153.9933Q279.53125 153.9933 279.14062 154.63393Q278.76562 155.25893 278.76562 156.5558L278.76562 158.29018Q278.76562 159.66518 279.15625 160.33705Q279.5625 160.9933 280.375 160.9933Q281.17188 160.9933 281.5625 160.3683Q281.95312 159.7433 281.96875 158.41518L281.96875 156.63393ZM288.85938 158.00893Q288.53125 158.41518 288.04688 158.66518Q287.57812 158.89955 287.01562 158.89955Q286.28125 158.89955 285.73438 158.54018Q285.1875 158.1808 284.89062 157.52455Q284.59375 156.85268 284.59375 156.0558Q284.59375 155.21205 284.90625 154.52455Q285.23438 153.83705 285.82812 153.47768Q286.4375 153.10268 287.23438 153.10268Q288.5 153.10268 289.21875 154.0558Q289.95312 155.00893 289.95312 156.63393L289.95312 156.94643Q289.95312 159.44643 288.96875 160.58705Q287.98438 161.72768 286.0 161.75893L285.78125 161.75893L285.78125 160.85268L286.01562 160.85268Q287.35938 160.82143 288.07812 160.14955Q288.79688 159.47768 288.85938 158.00893ZM287.1875 158.00893Q287.73438 158.00893 288.1875 157.6808Q288.65625 157.33705 288.875 156.85268L288.875 156.41518Q288.875 155.35268 288.40625 154.6808Q287.9375 154.00893 287.23438 154.00893Q286.51562 154.00893 286.07812 154.5558Q285.65625 155.10268 285.65625 156.00893Q285.65625 156.88393 286.0625 157.44643Q286.48438 158.00893 287.1875 158.00893ZM296.89062 155.44643Q296.89062 156.08705 296.54688 156.58705Q296.20312 157.08705 295.64062 157.3683Q296.29688 157.64955 296.6875 158.21205Q297.07812 158.75893 297.07812 159.46205Q297.07812 160.5558 296.32812 161.22768Q295.59375 161.88393 294.375 161.88393Q293.14062 161.88393 292.39062 161.22768Q291.65625 160.5558 291.65625 159.46205Q291.65625 158.75893 292.03125 158.21205Q292.40625 157.64955 293.07812 157.3683Q292.51562 157.08705 292.1875 156.58705Q291.85938 156.08705 291.85938 155.44643Q291.85938 154.3683 292.54688 153.7433Q293.23438 153.10268 294.375 153.10268Q295.5 153.10268 296.1875 153.7433Q296.89062 154.3683 296.89062 155.44643ZM296.0 159.4308Q296.0 158.71205 295.54688 158.27455Q295.09375 157.82143 294.35938 157.82143Q293.625 157.82143 293.17188 158.27455Q292.73438 158.71205 292.73438 159.44643Q292.73438 160.16518 293.17188 160.58705Q293.60938 160.9933 294.375 160.9933Q295.125 160.9933 295.5625 160.57143Q296.0 160.14955 296.0 159.4308ZM294.375 153.9933Q293.73438 153.9933 293.32812 154.39955Q292.9375 154.79018 292.9375 155.47768Q292.9375 156.1183 293.32812 156.52455Q293.71875 156.9308 294.35938 156.9308Q295.01562 156.9308 295.40625 156.52455Q295.79688 156.1183 295.79688 155.47768Q295.79688 154.82143 295.39062 154.41518Q294.98438 153.9933 294.375 153.9933Z" fill-rule="nonzero"/><path fill="#ffffff" d="M274.26562 161.75893L273.1875 161.75893L273.1875 154.54018L271.0 155.33705L271.0 154.35268L274.10938 153.1808L274.26562 153.1808L274.26562 161.75893ZM283.0625 158.1183Q283.0625 160.02455 282.40625 160.96205Q281.76562 161.88393 280.375 161.88393Q279.01562 161.88393 278.35938 160.97768Q277.70312 160.07143 277.67188 158.25893L277.67188 156.82143Q277.67188 154.9308 278.3125 154.02455Q278.96875 153.10268 280.35938 153.10268Q281.73438 153.10268 282.39062 153.9933Q283.04688 154.8683 283.0625 156.71205L283.0625 158.1183ZM281.96875 156.63393Q281.96875 155.25893 281.57812 154.63393Q281.20312 153.9933 280.35938 153.9933Q279.53125 153.9933 279.14062 154.63393Q278.76562 155.25893 278.76562 156.5558L278.76562 158.29018Q278.76562 159.66518 279.15625 160.33705Q279.5625 160.9933 280.375 160.9933Q281.17188 160.9933 281.5625 160.3683Q281.95312 159.7433 281.96875 158.41518L281.96875 156.63393ZM288.85938 158.00893Q288.53125 158.41518 288.04688 158.66518Q287.57812 158.89955 287.01562 158.89955Q286.28125 158.89955 285.73438 158.54018Q285.1875 158.1808 284.89062 157.52455Q284.59375 156.85268 284.59375 156.0558Q284.59375 155.21205 284.90625 154.52455Q285.23438 153.83705 285.82812 153.47768Q286.4375 153.10268 287.23438 153.10268Q288.5 153.10268 289.21875 154.0558Q289.95312 155.00893 289.95312 156.63393L289.95312 156.94643Q289.95312 159.44643 288.96875 160.58705Q287.98438 161.72768 286.0 161.75893L285.78125 161.75893L285.78125 160.85268L286.01562 160.85268Q287.35938 160.82143 288.07812 160.14955Q288.79688 159.47768 288.85938 158.00893ZM287.1875 158.00893Q287.73438 158.00893 288.1875 157.6808Q288.65625 157.33705 288.875 156.85268L288.875 156.41518Q288.875 155.35268 288.40625 154.6808Q287.9375 154.00893 287.23438 154.00893Q286.51562 154.00893 286.07812 154.5558Q285.65625 155.10268 285.65625 156.00893Q285.65625 156.88393 286.0625 157.44643Q286.48438 158.00893 287.1875 158.00893ZM296.89062 155.44643Q296.89062 156.08705 296.54688 156.58705Q296.20312 157.08705 295.64062 157.3683Q296.29688 157.64955 296.6875 158.21205Q297.07812 158.75893 297.07812 159.46205Q297.07812 160.5558 296.32812 161.22768Q295.59375 161.88393 294.375 161.88393Q293.14062 161.88393 292.39062 161.22768Q291.65625 160.5558 291.65625 159.46205Q291.65625 158.75893 292.03125 158.21205Q292.40625 157.64955 293.07812 157.3683Q292.51562 157.08705 292.1875 156.58705Q291.85938 156.08705 291.85938 155.44643Q291.85938 154.3683 292.54688 153.7433Q293.23438 153.10268 294.375 153.10268Q295.5 153.10268 296.1875 153.7433Q296.89062 154.3683 296.89062 155.44643ZM296.0 159.4308Q296.0 158.71205 295.54688 158.27455Q295.09375 157.82143 294.35938 157.82143Q293.625 157.82143 293.17188 158.27455Q292.73438 158.71205 292.73438 159.44643Q292.73438 160.16518 293.17188 160.58705Q293.60938 160.9933 294.375 160.9933Q295.125 160.9933 295.5625 160.57143Q296.0 160.14955 296.0 159.4308ZM294.375 153.9933Q293.73438 153.9933 293.32812 154.39955Q292.9375 154.79018 292.9375 155.47768Q292.9375 156.1183 293.32812 156.52455Q293.71875 156.9308 294.35938 156.9308Q295.01562 156.9308 295.40625 156.52455Q295.79688 156.1183 295.79688 155.47768Q295.79688 154.82143 295.39062 154.41518Q294.98438 153.9933 294.375 153.9933Z" fill-rule="nonzero"/><path stroke="#4285f4" stroke-width="3.0" stroke-linejoin="round" stroke-linecap="round" d="M344.20312 222.74223L344.64062 218.49223L349.01562 218.49223L349.01562 219.49223L345.5625 219.49223L345.29688 221.82036Q345.9375 221.44536 346.73438 221.44536Q347.89062 221.44536 348.57812 222.22661Q349.26562 222.99223 349.26562 224.30473Q349.26562 225.61723 348.54688 226.38286Q347.84375 227.14848 346.5625 227.14848Q345.4375 227.14848 344.71875 226.52348Q344.0 225.88286 343.90625 224.77348L344.92188 224.77348Q345.03125 225.50786 345.45312 225.88286Q345.875 226.25786 346.5625 226.25786Q347.3125 226.25786 347.75 225.74223Q348.1875 225.22661 348.1875 224.32036Q348.1875 223.46098 347.71875 222.94536Q347.25 222.42973 346.46875 222.42973Q345.76562 222.42973 345.35938 222.72661L345.07812 222.96098L344.20312 222.74223ZM355.28125 224.16411L356.46875 224.16411L356.46875 225.03911L355.28125 225.03911L355.28125 227.02348L354.20312 227.02348L354.20312 225.03911L350.3125 225.03911L350.3125 224.39848L354.125 218.49223L355.28125 218.49223L355.28125 224.16411ZM351.54688 224.16411L354.20312 224.16411L354.20312 219.97661L354.0625 220.21098L351.54688 224.16411Z" fill-rule="nonzero"/><path fill="#ffffff" d="M344.20312 222.74223L344.64062 218.49223L349.01562 218.49223L349.01562 219.49223L345.5625 219.49223L345.29688 221.82036Q345.9375 221.44536 346.73438 221.44536Q347.89062 221.44536 348.57812 222.22661Q349.26562 222.99223 349.26562 224.30473Q349.26562 225.61723 348.54688 226.38286Q347.84375 227.14848 346.5625 227.14848Q345.4375 227.14848 344.71875 226.52348Q344.0 225.88286 343.90625 224.77348L344.92188 224.77348Q345.03125 225.50786 345.45312 225.88286Q345.875 226.25786 346.5625 226.25786Q347.3125 226.25786 347.75 225.74223Q348.1875 225.22661 348.1875 224.32036Q348.1875 223.46098 347.71875 222.94536Q347.25 222.42973 346.46875 222.42973Q345.76562 222.42973 345.35938 222.72661L345.07812 222.96098L344.20312 222.74223ZM355.28125 224.16411L356.46875 224.16411L356.46875 225.03911L355.28125 225.03911L355.28125 227.02348L354.20312 227.02348L354.20312 225.03911L350.3125 225.03911L350.3125 224.39848L354.125 218.49223L355.28125 218.49223L355.28125 224.16411ZM351.54688 224.16411L354.20312 224.16411L354.20312 219.97661L354.0625 220.21098L351.54688 224.16411Z" fill-rule="nonzero"/><path stroke="#4285f4" stroke-width="3.0" stroke-linejoin="round" stroke-linecap="round" d="M415.78125 284.4517L416.59375 284.4517Q417.375 284.43607 417.8125 284.04544Q418.25 283.65482 418.25 282.98294Q418.25 281.48294 416.75 281.48294Q416.04688 281.48294 415.625 281.8892Q415.21875 282.29544 415.21875 282.9517L414.125 282.9517Q414.125 281.93607 414.85938 281.2642Q415.60938 280.59232 416.75 280.59232Q417.95312 280.59232 418.64062 281.23294Q419.32812 281.87357 419.32812 283.0142Q419.32812 283.5767 418.96875 284.09232Q418.60938 284.60794 417.98438 284.87357Q418.6875 285.09232 419.0625 285.60794Q419.45312 286.12357 419.45312 286.87357Q419.45312 288.0142 418.70312 288.7017Q417.95312 289.37357 416.75 289.37357Q415.5625 289.37357 414.79688 288.71732Q414.04688 288.06107 414.04688 286.99857L415.14062 286.99857Q415.14062 287.67044 415.57812 288.0767Q416.01562 288.48294 416.76562 288.48294Q417.54688 288.48294 417.95312 288.0767Q418.375 287.65482 418.375 286.8892Q418.375 286.15482 417.92188 285.7642Q417.46875 285.35794 416.59375 285.34232L415.78125 285.34232L415.78125 284.4517Z" fill-rule="nonzero"/><path fill="#ffffff" d="M415.78125 284.4517L416.59375 284.4517Q417.375 284.43607 417.8125 284.04544Q418.25 283.65482 418.25 282.98294Q418.25 281.48294 416.75 281.48294Q416.04688 281.48294 415.625 281.8892Q415.21875 282.29544 415.21875 282.9517L414.125 282.9517Q414.125 281.93607 414.85938 281.2642Q415.60938 280.59232 416.75 280.59232Q417.95312 280.59232 418.64062 281.23294Q419.32812 281.87357 419.32812 283.0142Q419.32812 283.5767 418.96875 284.09232Q418.60938 284.60794 417.98438 284.87357Q418.6875 285.09232 419.0625 285.60794Q419.45312 286.12357 419.45312 286.87357Q419.45312 288.0142 418.70312 288.7017Q417.95312 289.37357 416.75 289.37357Q415.5625 289.37357 414.79688 288.71732Q414.04688 288.06107 414.04688 286.99857L415.14062 286.99857Q415.14062 287.67044 415.57812 288.0767Q416.01562 288.48294 416.76562 288.48294Q417.54688 288.48294 417.95312 288.0767Q418.375 287.65482 418.375 286.8892Q418.375 286.15482 417.92188 285.7642Q417.46875 285.35794 416.59375 285.34232L415.78125 285.34232L415.78125 284.4517Z" fill-rule="nonzero"/><path fill="#000000" d="M210.79688 345.65L210.79688 339.43124L211.73438 339.43124L211.73438 340.30624Q212.42188 339.29062 213.71875 339.29062Q214.28125 339.29062 214.75 339.49374Q215.23438 339.69687 215.46875 340.025Q215.70312 340.35312 215.79688 340.79062Q215.84375 341.0875 215.84375 341.82187L215.84375 345.65L214.79688 345.65L214.79688 341.86874Q214.79688 341.2125 214.67188 340.9Q214.54688 340.5875 214.23438 340.4Q213.92188 340.19687 213.5 340.19687Q212.82812 340.19687 212.32812 340.63437Q211.84375 341.05624 211.84375 342.24374L211.84375 345.65L210.79688 345.65ZM221.875 345.65L221.875 344.72812Q221.14062 345.79062 219.89062 345.79062Q219.34375 345.79062 218.85938 345.5875Q218.39062 345.36874 218.15625 345.05624Q217.92188 344.72812 217.82812 344.25937Q217.76562 343.9625 217.76562 343.275L217.76562 339.43124L218.82812 339.43124L218.82812 342.88437Q218.82812 343.69687 218.89062 343.99374Q218.98438 344.4 219.29688 344.65Q219.625 344.88437 220.10938 344.88437Q220.57812 344.88437 220.98438 344.65Q221.40625 344.4 221.57812 343.97812Q221.76562 343.55624 221.76562 342.75937L221.76562 339.43124L222.8125 339.43124L222.8125 345.65L221.875 345.65ZM224.79688 345.65L224.79688 339.43124L225.73438 339.43124L225.73438 340.30624Q226.03125 339.8375 226.51562 339.57187Q227.0 339.29062 227.625 339.29062Q228.3125 339.29062 228.75 339.57187Q229.20312 339.85312 229.375 340.36874Q230.125 339.29062 231.29688 339.29062Q232.23438 339.29062 232.71875 339.80624Q233.21875 340.30624 233.21875 341.38437L233.21875 345.65L232.17188 345.65L232.17188 341.72812Q232.17188 341.10312 232.0625 340.82187Q231.96875 340.54062 231.70312 340.36874Q231.4375 340.19687 231.0625 340.19687Q230.40625 340.19687 229.96875 340.63437Q229.54688 341.07187 229.54688 342.04062L229.54688 345.65L228.48438 345.65L228.48438 341.60312Q228.48438 340.9 228.21875 340.55624Q227.96875 340.19687 227.39062 340.19687Q226.9375 340.19687 226.5625 340.43124Q226.1875 340.66562 226.01562 341.11874Q225.84375 341.57187 225.84375 342.41562L225.84375 345.65L224.79688 345.65ZM236.76562 345.65L235.78125 345.65L235.78125 337.05624L236.84375 337.05624L236.84375 340.11874Q237.51562 339.29062 238.54688 339.29062Q239.125 339.29062 239.625 339.525Q240.14062 339.74374 240.46875 340.16562Q240.8125 340.5875 241.0 341.18124Q241.1875 341.775 241.1875 342.44687Q241.1875 344.04062 240.39062 344.91562Q239.59375 345.79062 238.5 345.79062Q237.39062 345.79062 236.76562 344.86874L236.76562 345.65ZM236.75 342.49374Q236.75 343.60312 237.0625 344.10312Q237.5625 344.91562 238.40625 344.91562Q239.09375 344.91562 239.59375 344.32187Q240.10938 343.72812 240.10938 342.525Q240.10938 341.30624 239.625 340.72812Q239.14062 340.15 238.45312 340.15Q237.76562 340.15 237.25 340.75937Q236.75 341.35312 236.75 342.49374ZM247.04688 343.65L248.14062 343.775Q247.89062 344.72812 247.1875 345.25937Q246.48438 345.79062 245.40625 345.79062Q244.04688 345.79062 243.23438 344.94687Q242.4375 344.10312 242.4375 342.5875Q242.4375 341.025 243.25 340.16562Q244.0625 339.29062 245.34375 339.29062Q246.59375 339.29062 247.375 340.13437Q248.17188 340.97812 248.17188 342.525Q248.17188 342.61874 248.17188 342.80624L243.53125 342.80624Q243.59375 343.8375 244.10938 344.38437Q244.625 344.91562 245.40625 344.91562Q245.98438 344.91562 246.39062 344.61874Q246.8125 344.30624 247.04688 343.65ZM243.59375 341.94687L247.0625 341.94687Q247.0 341.15 246.67188 340.75937Q246.15625 340.15 245.35938 340.15Q244.625 340.15 244.125 340.63437Q243.64062 341.11874 243.59375 341.94687ZM249.78125 345.65L249.78125 339.43124L250.73438 339.43124L250.73438 340.36874Q251.09375 339.7125 251.39062 339.50937Q251.70312 339.29062 252.07812 339.29062Q252.60938 339.29062 253.15625 339.61874L252.79688 340.60312Q252.40625 340.36874 252.03125 340.36874Q251.67188 340.36874 251.39062 340.5875Q251.125 340.79062 251.01562 341.16562Q250.82812 341.72812 250.82812 342.38437L250.82812 345.65L249.78125 345.65ZM256.40625 342.54062Q256.40625 340.80624 257.35938 339.97812Q258.15625 339.29062 259.3125 339.29062Q260.59375 339.29062 261.40625 340.13437Q262.23438 340.9625 262.23438 342.44687Q262.23438 343.65 261.875 344.3375Q261.51562 345.025 260.8125 345.41562Q260.125 345.79062 259.3125 345.79062Q258.01562 345.79062 257.20312 344.9625Q256.40625 344.11874 256.40625 342.54062ZM257.48438 342.54062Q257.48438 343.72812 258.0 344.32187Q258.53125 344.91562 259.3125 344.91562Q260.10938 344.91562 260.625 344.32187Q261.14062 343.72812 261.14062 342.50937Q261.14062 341.35312 260.60938 340.75937Q260.09375 340.16562 259.3125 340.16562Q258.53125 340.16562 258.0 340.75937Q257.48438 341.3375 257.48438 342.54062ZM264.04688 345.65L264.04688 340.24374L263.10938 340.24374L263.10938 339.43124L264.04688 339.43124L264.04688 338.75937Q264.04688 338.13437 264.15625 337.8375Q264.3125 337.41562 264.6875 337.16562Q265.07812 336.91562 265.76562 336.91562Q266.21875 336.91562 266.75 337.025L266.59375 337.93124Q266.26562 337.88437 265.96875 337.88437Q265.48438 337.88437 265.28125 338.0875Q265.09375 338.29062 265.09375 338.85312L265.09375 339.43124L266.3125 339.43124L266.3125 340.24374L265.09375 340.24374L265.09375 345.65L264.04688 345.65ZM269.76562 345.65L269.76562 337.05624L270.82812 337.05624L270.82812 345.65L269.76562 345.65ZM277.04688 343.65L278.14062 343.775Q277.89062 344.72812 277.1875 345.25937Q276.48438 345.79062 275.40625 345.79062Q274.04688 345.79062 273.23438 344.94687Q272.4375 344.10312 272.4375 342.5875Q272.4375 341.025 273.25 340.16562Q274.0625 339.29062 275.34375 339.29062Q276.59375 339.29062 277.375 340.13437Q278.17188 340.97812 278.17188 342.525Q278.17188 342.61874 278.17188 342.80624L273.53125 342.80624Q273.59375 343.8375 274.10938 344.38437Q274.625 344.91562 275.40625 344.91562Q275.98438 344.91562 276.39062 344.61874Q276.8125 344.30624 277.04688 343.65ZM273.59375 341.94687L277.0625 341.94687Q277.0 341.15 276.67188 340.75937Q276.15625 340.15 275.35938 340.15Q274.625 340.15 274.125 340.63437Q273.64062 341.11874 273.59375 341.94687ZM281.51562 345.65L279.15625 339.43124L280.26562 339.43124L281.60938 343.15Q281.8125 343.75937 282.0 344.4Q282.14062 343.91562 282.39062 343.22812L283.78125 339.43124L284.85938 339.43124L282.5 345.65L281.51562 345.65ZM289.04688 343.65L290.14062 343.775Q289.89062 344.72812 289.1875 345.25937Q288.48438 345.79062 287.40625 345.79062Q286.04688 345.79062 285.23438 344.94687Q284.4375 344.10312 284.4375 342.5875Q284.4375 341.025 285.25 340.16562Q286.0625 339.29062 287.34375 339.29062Q288.59375 339.29062 289.375 340.13437Q290.17188 340.97812 290.17188 342.525Q290.17188 342.61874 290.17188 342.80624L285.53125 342.80624Q285.59375 343.8375 286.10938 344.38437Q286.625 344.91562 287.40625 344.91562Q287.98438 344.91562 288.39062 344.61874Q288.8125 344.30624 289.04688 343.65ZM285.59375 341.94687L289.0625 341.94687Q289.0 341.15 288.67188 340.75937Q288.15625 340.15 287.35938 340.15Q286.625 340.15 286.125 340.63437Q285.64062 341.11874 285.59375 341.94687ZM291.76562 345.65L291.76562 337.05624L292.82812 337.05624L292.82812 345.65L291.76562 345.65ZM294.375 343.79062L295.40625 343.63437Q295.5 344.25937 295.89062 344.5875Q296.29688 344.91562 297.03125 344.91562Q297.75 344.91562 298.09375 344.63437Q298.45312 344.3375 298.45312 343.93124Q298.45312 343.57187 298.14062 343.36874Q297.92188 343.22812 297.0625 343.00937Q295.90625 342.7125 295.45312 342.50937Q295.01562 342.29062 294.78125 341.91562Q294.54688 341.54062 294.54688 341.07187Q294.54688 340.66562 294.73438 340.30624Q294.92188 339.94687 295.25 339.7125Q295.5 339.54062 295.92188 339.41562Q296.34375 339.29062 296.84375 339.29062Q297.5625 339.29062 298.10938 339.50937Q298.67188 339.7125 298.9375 340.07187Q299.20312 340.43124 299.29688 341.025L298.26562 341.16562Q298.20312 340.69687 297.85938 340.43124Q297.53125 340.15 296.90625 340.15Q296.1875 340.15 295.875 340.4Q295.5625 340.63437 295.5625 340.9625Q295.5625 341.16562 295.6875 341.32187Q295.82812 341.49374 296.09375 341.60312Q296.25 341.66562 297.03125 341.86874Q298.15625 342.18124 298.59375 342.36874Q299.03125 342.55624 299.28125 342.91562Q299.53125 343.275 299.53125 343.82187Q299.53125 344.35312 299.21875 344.82187Q298.92188 345.275 298.34375 345.54062Q297.76562 345.79062 297.03125 345.79062Q295.8125 345.79062 295.17188 345.29062Q294.54688 344.775 294.375 343.79062ZM304.79688 338.275L304.79688 337.05624L305.85938 337.05624L305.85938 338.275L304.79688 338.275ZM304.79688 345.65L304.79688 339.43124L305.85938 339.43124L305.85938 345.65L304.79688 345.65ZM307.79688 345.65L307.79688 339.43124L308.73438 339.43124L308.73438 340.30624Q309.42188 339.29062 310.71875 339.29062Q311.28125 339.29062 311.75 339.49374Q312.23438 339.69687 312.46875 340.025Q312.70312 340.35312 312.79688 340.79062Q312.84375 341.0875 312.84375 341.82187L312.84375 345.65L311.79688 345.65L311.79688 341.86874Q311.79688 341.2125 311.67188 340.9Q311.54688 340.5875 311.23438 340.4Q310.92188 340.19687 310.5 340.19687Q309.82812 340.19687 309.32812 340.63437Q308.84375 341.05624 308.84375 342.24374L308.84375 345.65L307.79688 345.65ZM320.09375 344.7125L320.25 345.63437Q319.79688 345.72812 319.45312 345.72812Q318.875 345.72812 318.5625 345.55624Q318.25 345.36874 318.10938 345.07187Q317.98438 344.775 317.98438 343.82187L317.98438 340.24374L317.21875 340.24374L317.21875 339.43124L317.98438 339.43124L317.98438 337.88437L319.03125 337.25937L319.03125 339.43124L320.09375 339.43124L320.09375 340.24374L319.03125 340.24374L319.03125 343.88437Q319.03125 344.3375 319.07812 344.4625Q319.14062 344.5875 319.26562 344.66562Q319.39062 344.74374 319.625 344.74374Q319.8125 344.74374 320.09375 344.7125ZM320.79688 345.65L320.79688 337.05624L321.84375 337.05624L321.84375 340.13437Q322.57812 339.29062 323.70312 339.29062Q324.40625 339.29062 324.90625 339.57187Q325.42188 339.8375 325.64062 340.32187Q325.85938 340.79062 325.85938 341.7125L325.85938 345.65L324.8125 345.65L324.8125 341.7125Q324.8125 340.91562 324.46875 340.55624Q324.125 340.19687 323.5 340.19687Q323.03125 340.19687 322.60938 340.44687Q322.20312 340.68124 322.01562 341.10312Q321.84375 341.50937 321.84375 342.24374L321.84375 345.65L320.79688 345.65ZM332.04688 343.65L333.14062 343.775Q332.89062 344.72812 332.1875 345.25937Q331.48438 345.79062 330.40625 345.79062Q329.04688 345.79062 328.23438 344.94687Q327.4375 344.10312 327.4375 342.5875Q327.4375 341.025 328.25 340.16562Q329.0625 339.29062 330.34375 339.29062Q331.59375 339.29062 332.375 340.13437Q333.17188 340.97812 333.17188 342.525Q333.17188 342.61874 333.17188 342.80624L328.53125 342.80624Q328.59375 343.8375 329.10938 344.38437Q329.625 344.91562 330.40625 344.91562Q330.98438 344.91562 331.39062 344.61874Q331.8125 344.30624 332.04688 343.65ZM328.59375 341.94687L332.0625 341.94687Q332.0 341.15 331.67188 340.75937Q331.15625 340.15 330.35938 340.15Q329.625 340.15 329.125 340.63437Q328.64062 341.11874 328.59375 341.94687ZM338.9375 345.65L337.03125 339.43124L338.125 339.43124L339.10938 343.025L339.48438 344.35312Q339.51562 344.25937 339.8125 343.07187L340.79688 339.43124L341.875 339.43124L342.8125 343.04062L343.125 344.22812L343.48438 343.025L344.54688 339.43124L345.57812 339.43124L343.625 345.65L342.53125 345.65L341.54688 341.91562L341.29688 340.86874L340.04688 345.65L338.9375 345.65ZM350.85938 344.88437Q350.26562 345.38437 349.71875 345.5875Q349.1875 345.79062 348.5625 345.79062Q347.53125 345.79062 346.98438 345.29062Q346.4375 344.79062 346.4375 344.00937Q346.4375 343.55624 346.64062 343.18124Q346.84375 342.79062 347.1875 342.57187Q347.53125 342.3375 347.95312 342.22812Q348.25 342.13437 348.89062 342.05624Q350.15625 341.91562 350.76562 341.69687Q350.76562 341.47812 350.76562 341.43124Q350.76562 340.775 350.46875 340.50937Q350.0625 340.16562 349.26562 340.16562Q348.53125 340.16562 348.17188 340.43124Q347.8125 340.68124 347.64062 341.3375L346.60938 341.19687Q346.75 340.54062 347.07812 340.13437Q347.40625 339.72812 348.01562 339.50937Q348.625 339.29062 349.42188 339.29062Q350.21875 339.29062 350.71875 339.47812Q351.21875 339.66562 351.45312 339.94687Q351.6875 340.22812 351.78125 340.66562Q351.82812 340.93124 351.82812 341.63437L351.82812 343.04062Q351.82812 344.50937 351.89062 344.9Q351.96875 345.29062 352.17188 345.65L351.0625 345.65Q350.90625 345.32187 350.85938 344.88437ZM350.76562 342.525Q350.1875 342.75937 349.04688 342.93124Q348.39062 343.025 348.125 343.15Q347.85938 343.25937 347.70312 343.47812Q347.5625 343.69687 347.5625 343.97812Q347.5625 344.4 347.875 344.68124Q348.20312 344.9625 348.8125 344.9625Q349.42188 344.9625 349.89062 344.69687Q350.375 344.43124 350.59375 343.9625Q350.76562 343.60312 350.76562 342.91562L350.76562 342.525ZM353.78125 345.65L353.78125 339.43124L354.73438 339.43124L354.73438 340.36874Q355.09375 339.7125 355.39062 339.50937Q355.70312 339.29062 356.07812 339.29062Q356.60938 339.29062 357.15625 339.61874L356.79688 340.60312Q356.40625 340.36874 356.03125 340.36874Q355.67188 340.36874 355.39062 340.5875Q355.125 340.79062 355.01562 341.16562Q354.82812 341.72812 354.82812 342.38437L354.82812 345.65L353.78125 345.65Z" fill-rule="nonzero"/><path fill="#000000" d="M29.349995 209.70312L23.131245 209.70312L23.131245 208.76562L24.006245 208.76562Q22.99062 208.07812 22.99062 206.78125Q22.99062 206.21875 23.193745 205.75Q23.39687 205.26562 23.724995 205.03125Q24.05312 204.79688 24.49062 204.70312Q24.787495 204.65625 25.52187 204.65625L29.349995 204.65625L29.349995 205.70312L25.568745 205.70312Q24.912495 205.70312 24.599995 205.82812Q24.287495 205.95312 24.099995 206.26562Q23.89687 206.57812 23.89687 207.0Q23.89687 207.67188 24.33437 208.17188Q24.756245 208.65625 25.943745 208.65625L29.349995 208.65625L29.349995 209.70312ZM29.349995 198.625L28.42812 198.625Q29.49062 199.35938 29.49062 200.60938Q29.49062 201.15625 29.287495 201.64062Q29.068745 202.10938 28.756245 202.34375Q28.42812 202.57812 27.95937 202.67188Q27.662495 202.73438 26.974995 202.73438L23.131245 202.73438L23.131245 201.67188L26.58437 201.67188Q27.39687 201.67188 27.693745 201.60938Q28.099995 201.51562 28.349995 201.20312Q28.58437 200.875 28.58437 200.39062Q28.58437 199.92188 28.349995 199.51562Q28.099995 199.09375 27.67812 198.92188Q27.256245 198.73438 26.45937 198.73438L23.131245 198.73438L23.131245 197.6875L29.349995 197.6875L29.349995 198.625ZM29.349995 195.70312L23.131245 195.70312L23.131245 194.76562L24.006245 194.76562Q23.537495 194.46875 23.27187 193.98438Q22.99062 193.5 22.99062 192.875Q22.99062 192.1875 23.27187 191.75Q23.55312 191.29688 24.068745 191.125Q22.99062 190.375 22.99062 189.20312Q22.99062 188.26562 23.506245 187.78125Q24.006245 187.28125 25.08437 187.28125L29.349995 187.28125L29.349995 188.32812L25.42812 188.32812Q24.80312 188.32812 24.52187 188.4375Q24.24062 188.53125 24.068745 188.79688Q23.89687 189.0625 23.89687 189.4375Q23.89687 190.09375 24.33437 190.53125Q24.77187 190.95312 25.74062 190.95312L29.349995 190.95312L29.349995 192.01562L25.30312 192.01562Q24.599995 192.01562 24.256245 192.28125Q23.89687 192.53125 23.89687 193.10938Q23.89687 193.5625 24.131245 193.9375Q24.36562 194.3125 24.818745 194.48438Q25.27187 194.65625 26.11562 194.65625L29.349995 194.65625L29.349995 195.70312ZM29.349995 183.73438L29.349995 184.71875L20.756245 184.71875L20.756245 183.65625L23.818745 183.65625Q22.99062 182.98438 22.99062 181.95312Q22.99062 181.375 23.224995 180.875Q23.443745 180.35938 23.86562 180.03125Q24.287495 179.6875 24.881245 179.5Q25.474995 179.3125 26.14687 179.3125Q27.74062 179.3125 28.61562 180.10938Q29.49062 180.90625 29.49062 182.0Q29.49062 183.10938 28.568745 183.73438L29.349995 183.73438ZM26.193745 183.75Q27.30312 183.75 27.80312 183.4375Q28.61562 182.9375 28.61562 182.09375Q28.61562 181.40625 28.02187 180.90625Q27.42812 180.39062 26.224995 180.39062Q25.006245 180.39062 24.42812 180.875Q23.849995 181.35938 23.849995 182.04688Q23.849995 182.73438 24.45937 183.25Q25.05312 183.75 26.193745 183.75ZM27.349995 173.45312L27.474995 172.35938Q28.42812 172.60938 28.95937 173.3125Q29.49062 174.01562 29.49062 175.09375Q29.49062 176.45312 28.64687 177.26562Q27.80312 178.0625 26.287495 178.0625Q24.724995 178.0625 23.86562 177.25Q22.99062 176.4375 22.99062 175.15625Q22.99062 173.90625 23.83437 173.125Q24.67812 172.32812 26.224995 172.32812Q26.318745 172.32812 26.506245 172.32812L26.506245 176.96875Q27.537495 176.90625 28.08437 176.39062Q28.61562 175.875 28.61562 175.09375Q28.61562 174.51562 28.318745 174.10938Q28.006245 173.6875 27.349995 173.45312ZM25.64687 176.90625L25.64687 173.4375Q24.849995 173.5 24.45937 173.82812Q23.849995 174.34375 23.849995 175.14062Q23.849995 175.875 24.33437 176.375Q24.818745 176.85938 25.64687 176.90625ZM29.349995 170.71875L23.131245 170.71875L23.131245 169.76562L24.068745 169.76562Q23.412495 169.40625 23.20937 169.10938Q22.99062 168.79688 22.99062 168.42188Q22.99062 167.89062 23.318745 167.34375L24.30312 167.70312Q24.068745 168.09375 24.068745 168.46875Q24.068745 168.82812 24.287495 169.10938Q24.49062 169.375 24.86562 169.48438Q25.42812 169.67188 26.08437 169.67188L29.349995 169.67188L29.349995 170.71875ZM26.24062 164.09375Q24.506245 164.09375 23.67812 163.14062Q22.99062 162.34375 22.99062 161.1875Q22.99062 159.90625 23.83437 159.09375Q24.662495 158.26562 26.14687 158.26562Q27.349995 158.26562 28.037495 158.625Q28.724995 158.98438 29.11562 159.6875Q29.49062 160.375 29.49062 161.1875Q29.49062 162.48438 28.662495 163.29688Q27.818745 164.09375 26.24062 164.09375ZM26.24062 163.01562Q27.42812 163.01562 28.02187 162.5Q28.61562 161.96875 28.61562 161.1875Q28.61562 160.39062 28.02187 159.875Q27.42812 159.35938 26.20937 159.35938Q25.05312 159.35938 24.45937 159.89062Q23.86562 160.40625 23.86562 161.1875Q23.86562 161.96875 24.45937 162.5Q25.037495 163.01562 26.24062 163.01562ZM29.349995 156.45312L23.943745 156.45312L23.943745 157.39062L23.131245 157.39062L23.131245 156.45312L22.45937 156.45312Q21.83437 156.45312 21.537495 156.34375Q21.11562 156.1875 20.86562 155.8125Q20.61562 155.42188 20.61562 154.73438Q20.61562 154.28125 20.724995 153.75L21.631245 153.90625Q21.58437 154.23438 21.58437 154.53125Q21.58437 155.01562 21.787495 155.21875Q21.99062 155.40625 22.55312 155.40625L23.131245 155.40625L23.131245 154.1875L23.943745 154.1875L23.943745 155.40625L29.349995 155.40625L29.349995 156.45312ZM29.349995 149.5625L23.131245 151.46875L23.131245 150.375L26.724995 149.39062L28.05312 149.01562Q27.95937 148.98438 26.77187 148.6875L23.131245 147.70312L23.131245 146.625L26.74062 145.6875L27.92812 145.375L26.724995 145.01562L23.131245 143.95312L23.131245 142.92188L29.349995 144.875L29.349995 145.96875L25.61562 146.95312L24.568745 147.20312L29.349995 148.45312L29.349995 149.5625ZM28.58437 137.64062Q29.08437 138.23438 29.287495 138.78125Q29.49062 139.3125 29.49062 139.9375Q29.49062 140.96875 28.99062 141.51562Q28.49062 142.0625 27.70937 142.0625Q27.256245 142.0625 26.881245 141.85938Q26.49062 141.65625 26.27187 141.3125Q26.037495 140.96875 25.92812 140.54688Q25.83437 140.25 25.756245 139.60938Q25.61562 138.34375 25.39687 137.73438Q25.17812 137.73438 25.131245 137.73438Q24.474995 137.73438 24.20937 138.03125Q23.86562 138.4375 23.86562 139.23438Q23.86562 139.96875 24.131245 140.32812Q24.381245 140.6875 25.037495 140.85938L24.89687 141.89062Q24.24062 141.75 23.83437 141.42188Q23.42812 141.09375 23.20937 140.48438Q22.99062 139.875 22.99062 139.07812Q22.99062 138.28125 23.17812 137.78125Q23.36562 137.28125 23.64687 137.04688Q23.92812 136.8125 24.36562 136.71875Q24.631245 136.67188 25.33437 136.67188L26.74062 136.67188Q28.20937 136.67188 28.599995 136.60938Q28.99062 136.53125 29.349995 136.32812L29.349995 137.4375Q29.02187 137.59375 28.58437 137.64062ZM26.224995 137.73438Q26.45937 138.3125 26.631245 139.45312Q26.724995 140.10938 26.849995 140.375Q26.95937 140.64062 27.17812 140.79688Q27.39687 140.9375 27.67812 140.9375Q28.099995 140.9375 28.381245 140.625Q28.662495 140.29688 28.662495 139.6875Q28.662495 139.07812 28.39687 138.60938Q28.131245 138.125 27.662495 137.90625Q27.30312 137.73438 26.61562 137.73438L26.224995 137.73438ZM29.349995 134.71875L23.131245 134.71875L23.131245 133.76562L24.068745 133.76562Q23.412495 133.40625 23.20937 133.10938Q22.99062 132.79688 22.99062 132.42188Q22.99062 131.89062 23.318745 131.34375L24.30312 131.70312Q24.068745 132.09375 24.068745 132.46875Q24.068745 132.82812 24.287495 133.10938Q24.49062 133.375 24.86562 133.48438Q25.42812 133.67188 26.08437 133.67188L29.349995 133.67188L29.349995 134.71875ZM27.49062 131.125L27.33437 130.09375Q27.95937 130.0 28.287495 129.60938Q28.61562 129.20312 28.61562 128.46875Q28.61562 127.75 28.33437 127.40625Q28.037495 127.046875 27.631245 127.046875Q27.27187 127.046875 27.068745 127.359375Q26.92812 127.578125 26.70937 128.4375Q26.412495 129.59375 26.20937 130.04688Q25.99062 130.48438 25.61562 130.71875Q25.24062 130.95312 24.77187 130.95312Q24.36562 130.95312 24.006245 130.76562Q23.64687 130.57812 23.412495 130.25Q23.24062 130.0 23.11562 129.57812Q22.99062 129.15625 22.99062 128.65625Q22.99062 127.9375 23.20937 127.390625Q23.412495 126.828125 23.77187 126.5625Q24.131245 126.296875 24.724995 126.203125L24.86562 127.234375Q24.39687 127.296875 24.131245 127.640625Q23.849995 127.96875 23.849995 128.59375Q23.849995 129.3125 24.099995 129.625Q24.33437 129.9375 24.662495 129.9375Q24.86562 129.9375 25.02187 129.8125Q25.193745 129.67188 25.30312 129.40625Q25.36562 129.25 25.568745 128.46875Q25.881245 127.34375 26.068745 126.90625Q26.256245 126.46875 26.61562 126.21875Q26.974995 125.96875 27.52187 125.96875Q28.05312 125.96875 28.52187 126.28125Q28.974995 126.578125 29.24062 127.15625Q29.49062 127.734375 29.49062 128.46875Q29.49062 129.6875 28.99062 130.32812Q28.474995 130.95312 27.49062 131.125Z" fill-rule="nonzero"/><path fill="#000000" d="M89.81875 300.65L88.77187 300.65L88.77187 293.93124Q88.38125 294.29062 87.75625 294.66562Q87.14687 295.025 86.6625 295.19687L86.6625 294.18124Q87.5375 293.75937 88.19375 293.18124Q88.86562 292.5875 89.14687 292.025L89.81875 292.025L89.81875 300.65Z" fill-rule="nonzero"/><path fill="#000000" d="M82.81875 250.7615L81.77187 250.7615L81.77187 244.04276Q81.38125 244.40213 80.75625 244.77713Q80.14687 245.1365 79.6625 245.30838L79.6625 244.29276Q80.5375 243.87088 81.19375 243.29276Q81.86562 242.699 82.14687 242.1365L82.81875 242.1365L82.81875 250.7615ZM85.85 246.52713Q85.85 244.99588 86.1625 244.074Q86.475 243.1365 87.08437 242.6365Q87.70937 242.1365 88.64687 242.1365Q89.33437 242.1365 89.85 242.41776Q90.38125 242.699 90.725 243.23026Q91.06875 243.74588 91.25625 244.49588Q91.44375 245.24588 91.44375 246.52713Q91.44375 248.04276 91.13125 248.96463Q90.83437 249.8865 90.20937 250.40213Q89.6 250.90213 88.64687 250.90213Q87.4125 250.90213 86.69375 250.0115Q85.85 248.949 85.85 246.52713ZM86.92812 246.52713Q86.92812 248.6365 87.42812 249.33963Q87.92812 250.04276 88.64687 250.04276Q89.38125 250.04276 89.86562 249.33963Q90.36562 248.6365 90.36562 246.52713Q90.36562 244.40213 89.86562 243.71463Q89.38125 243.0115 88.63125 243.0115Q87.9125 243.0115 87.475 243.62088Q86.92812 244.40213 86.92812 246.52713Z" fill-rule="nonzero"/><path fill="#000000" d="M75.81875 200.87302L74.77187 200.87302L74.77187 194.15427Q74.38125 194.51364 73.75625 194.88864Q73.14687 195.24802 72.6625 195.41989L72.6625 194.40427Q73.5375 193.98239 74.19375 193.40427Q74.86562 192.81052 75.14687 192.24802L75.81875 192.24802L75.81875 200.87302ZM78.85 196.63864Q78.85 195.10739 79.1625 194.18552Q79.475 193.24802 80.08437 192.74802Q80.70937 192.24802 81.64687 192.24802Q82.33437 192.24802 82.85 192.52927Q83.38125 192.81052 83.725 193.34177Q84.06875 193.85739 84.25625 194.60739Q84.44375 195.35739 84.44375 196.63864Q84.44375 198.15427 84.13125 199.07614Q83.83437 199.99802 83.20937 200.51364Q82.6 201.01364 81.64687 201.01364Q80.4125 201.01364 79.69375 200.12302Q78.85 199.06052 78.85 196.63864ZM79.92812 196.63864Q79.92812 198.74802 80.42812 199.45114Q80.92812 200.15427 81.64687 200.15427Q82.38125 200.15427 82.86562 199.45114Q83.36562 198.74802 83.36562 196.63864Q83.36562 194.51364 82.86562 193.82614Q82.38125 193.12302 81.63125 193.12302Q80.9125 193.12302 80.475 193.73239Q79.92812 194.51364 79.92812 196.63864ZM85.85 196.63864Q85.85 195.10739 86.1625 194.18552Q86.475 193.24802 87.08437 192.74802Q87.70937 192.24802 88.64687 192.24802Q89.33437 192.24802 89.85 192.52927Q90.38125 192.81052 90.725 193.34177Q91.06875 193.85739 91.25625 194.60739Q91.44375 195.35739 91.44375 196.63864Q91.44375 198.15427 91.13125 199.07614Q90.83437 199.99802 90.20937 200.51364Q89.6 201.01364 88.64687 201.01364Q87.4125 201.01364 86.69375 200.12302Q85.85 199.06052 85.85 196.63864ZM86.92812 196.63864Q86.92812 198.74802 87.42812 199.45114Q87.92812 200.15427 88.64687 200.15427Q89.38125 200.15427 89.86562 199.45114Q90.36562 198.74802 90.36562 196.63864Q90.36562 194.51364 89.86562 193.82614Q89.38125 193.12302 88.63125 193.12302Q87.9125 193.12302 87.475 193.73239Q86.92812 194.51364 86.92812 196.63864Z" fill-rule="nonzero"/><path fill="#000000" d="M68.81875 150.98451L67.77187 150.98451L67.77187 144.26576Q67.38125 144.62514 66.75625 145.00014Q66.14687 145.35951 65.6625 145.53139L65.6625 144.51576Q66.5375 144.09389 67.19375 143.51576Q67.86562 142.92201 68.14687 142.35951L68.81875 142.35951L68.81875 150.98451ZM71.85 146.75014Q71.85 145.21889 72.1625 144.29701Q72.475 143.35951 73.08437 142.85951Q73.70937 142.35951 74.64687 142.35951Q75.33437 142.35951 75.85 142.64076Q76.38125 142.92201 76.725 143.45326Q77.06875 143.96889 77.25625 144.71889Q77.44375 145.46889 77.44375 146.75014Q77.44375 148.26576 77.13125 149.18764Q76.83437 150.10951 76.20937 150.62514Q75.6 151.12514 74.64687 151.12514Q73.4125 151.12514 72.69375 150.23451Q71.85 149.17201 71.85 146.75014ZM72.92812 146.75014Q72.92812 148.85951 73.42812 149.56264Q73.92812 150.26576 74.64687 150.26576Q75.38125 150.26576 75.86562 149.56264Q76.36562 148.85951 76.36562 146.75014Q76.36562 144.62514 75.86562 143.93764Q75.38125 143.23451 74.63125 143.23451Q73.9125 143.23451 73.475 143.84389Q72.92812 144.62514 72.92812 146.75014ZM78.85 146.75014Q78.85 145.21889 79.1625 144.29701Q79.475 143.35951 80.08437 142.85951Q80.70937 142.35951 81.64687 142.35951Q82.33437 142.35951 82.85 142.64076Q83.38125 142.92201 83.725 143.45326Q84.06875 143.96889 84.25625 144.71889Q84.44375 145.46889 84.44375 146.75014Q84.44375 148.26576 84.13125 149.18764Q83.83437 150.10951 83.20937 150.62514Q82.6 151.12514 81.64687 151.12514Q80.4125 151.12514 79.69375 150.23451Q78.85 149.17201 78.85 146.75014ZM79.92812 146.75014Q79.92812 148.85951 80.42812 149.56264Q80.92812 150.26576 81.64687 150.26576Q82.38125 150.26576 82.86562 149.56264Q83.36562 148.85951 83.36562 146.75014Q83.36562 144.62514 82.86562 143.93764Q82.38125 143.23451 81.63125 143.23451Q80.9125 143.23451 80.475 143.84389Q79.92812 144.62514 79.92812 146.75014ZM85.85 146.75014Q85.85 145.21889 86.1625 144.29701Q86.475 143.35951 87.08437 142.85951Q87.70937 142.35951 88.64687 142.35951Q89.33437 142.35951 89.85 142.64076Q90.38125 142.92201 90.725 143.45326Q91.06875 143.96889 91.25625 144.71889Q91.44375 145.46889 91.44375 146.75014Q91.44375 148.26576 91.13125 149.18764Q90.83437 150.10951 90.20937 150.62514Q89.6 151.12514 88.64687 151.12514Q87.4125 151.12514 86.69375 150.23451Q85.85 149.17201 85.85 146.75014ZM86.92812 146.75014Q86.92812 148.85951 87.42812 149.56264Q87.92812 150.26576 88.64687 150.26576Q89.38125 150.26576 89.86562 149.56264Q90.36562 148.85951 90.36562 146.75014Q90.36562 144.62514 89.86562 143.93764Q89.38125 143.23451 88.63125 143.23451Q87.9125 143.23451 87.475 143.84389Q86.92812 144.62514 86.92812 146.75014Z" fill-rule="nonzero"/><path fill="#000000" d="M61.81875 101.09602L60.771873 101.09602L60.771873 94.37727Q60.38125 94.73665 59.75625 95.11165Q59.146873 95.47102 58.6625 95.6429L58.6625 94.62727Q59.5375 94.2054 60.19375 93.62727Q60.865623 93.03352 61.146873 92.47102L61.81875 92.47102L61.81875 101.09602ZM64.85 96.86165Q64.85 95.3304 65.1625 94.40852Q65.475 93.47102 66.08437 92.97102Q66.70937 92.47102 67.64687 92.47102Q68.33437 92.47102 68.85 92.75227Q69.38125 93.03352 69.725 93.56477Q70.06875 94.0804 70.25625 94.8304Q70.44375 95.5804 70.44375 96.86165Q70.44375 98.37727 70.13125 99.29915Q69.83437 100.22102 69.20937 100.73665Q68.6 101.23665 67.64687 101.23665Q66.4125 101.23665 65.69375 100.34602Q64.85 99.28352 64.85 96.86165ZM65.92812 96.86165Q65.92812 98.97102 66.42812 99.67415Q66.92812 100.37727 67.64687 100.37727Q68.38125 100.37727 68.86562 99.67415Q69.36562 98.97102 69.36562 96.86165Q69.36562 94.73665 68.86562 94.04915Q68.38125 93.34602 67.63125 93.34602Q66.9125 93.34602 66.475 93.9554Q65.92812 94.73665 65.92812 96.86165ZM71.85 96.86165Q71.85 95.3304 72.1625 94.40852Q72.475 93.47102 73.08437 92.97102Q73.70937 92.47102 74.64687 92.47102Q75.33437 92.47102 75.85 92.75227Q76.38125 93.03352 76.725 93.56477Q77.06875 94.0804 77.25625 94.8304Q77.44375 95.5804 77.44375 96.86165Q77.44375 98.37727 77.13125 99.29915Q76.83437 100.22102 76.20937 100.73665Q75.6 101.23665 74.64687 101.23665Q73.4125 101.23665 72.69375 100.34602Q71.85 99.28352 71.85 96.86165ZM72.92812 96.86165Q72.92812 98.97102 73.42812 99.67415Q73.92812 100.37727 74.64687 100.37727Q75.38125 100.37727 75.86562 99.67415Q76.36562 98.97102 76.36562 96.86165Q76.36562 94.73665 75.86562 94.04915Q75.38125 93.34602 74.63125 93.34602Q73.9125 93.34602 73.475 93.9554Q72.92812 94.73665 72.92812 96.86165ZM78.85 96.86165Q78.85 95.3304 79.1625 94.40852Q79.475 93.47102 80.08437 92.97102Q80.70937 92.47102 81.64687 92.47102Q82.33437 92.47102 82.85 92.75227Q83.38125 93.03352 83.725 93.56477Q84.06875 94.0804 84.25625 94.8304Q84.44375 95.5804 84.44375 96.86165Q84.44375 98.37727 84.13125 99.29915Q83.83437 100.22102 83.20937 100.73665Q82.6 101.23665 81.64687 101.23665Q80.4125 101.23665 79.69375 100.34602Q78.85 99.28352 78.85 96.86165ZM79.92812 96.86165Q79.92812 98.97102 80.42812 99.67415Q80.92812 100.37727 81.64687 100.37727Q82.38125 100.37727 82.86562 99.67415Q83.36562 98.97102 83.36562 96.86165Q83.36562 94.73665 82.86562 94.04915Q82.38125 93.34602 81.63125 93.34602Q80.9125 93.34602 80.475 93.9554Q79.92812 94.73665 79.92812 96.86165ZM85.85 96.86165Q85.85 95.3304 86.1625 94.40852Q86.475 93.47102 87.08437 92.97102Q87.70937 92.47102 88.64687 92.47102Q89.33437 92.47102 89.85 92.75227Q90.38125 93.03352 90.725 93.56477Q91.06875 94.0804 91.25625 94.8304Q91.44375 95.5804 91.44375 96.86165Q91.44375 98.37727 91.13125 99.29915Q90.83437 100.22102 90.20937 100.73665Q89.6 101.23665 88.64687 101.23665Q87.4125 101.23665 86.69375 100.34602Q85.85 99.28352 85.85 96.86165ZM86.92812 96.86165Q86.92812 98.97102 87.42812 99.67415Q87.92812 100.37727 88.64687 100.37727Q89.38125 100.37727 89.86562 99.67415Q90.36562 98.97102 90.36562 96.86165Q90.36562 94.73665 89.86562 94.04915Q89.38125 93.34602 88.63125 93.34602Q87.9125 93.34602 87.475 93.9554Q86.92812 94.73665 86.92812 96.86165Z" fill-rule="nonzero"/><path fill="#000000" d="M54.81875 51.207527L53.771873 51.207527L53.771873 44.488777Q53.38125 44.848152 52.75625 45.223152Q52.146873 45.582527 51.6625 45.754402L51.6625 44.738777Q52.5375 44.316902 53.19375 43.738777Q53.865623 43.145027 54.146873 42.582527L54.81875 42.582527L54.81875 51.207527ZM57.85 46.973152Q57.85 45.441902 58.1625 44.520027Q58.475 43.582527 59.084373 43.082527Q59.709373 42.582527 60.646873 42.582527Q61.334373 42.582527 61.85 42.863777Q62.38125 43.145027 62.725 43.676277Q63.06875 44.191902 63.25625 44.941902Q63.44375 45.691902 63.44375 46.973152Q63.44375 48.488777 63.13125 49.410652Q62.834373 50.332527 62.209373 50.848152Q61.6 51.348152 60.646873 51.348152Q59.4125 51.348152 58.69375 50.457527Q57.85 49.395027 57.85 46.973152ZM58.928123 46.973152Q58.928123 49.082527 59.428123 49.785652Q59.928123 50.488777 60.646873 50.488777Q61.38125 50.488777 61.865623 49.785652Q62.365623 49.082527 62.365623 46.973152Q62.365623 44.848152 61.865623 44.160652Q61.38125 43.457527 60.63125 43.457527Q59.9125 43.457527 59.475 44.066902Q58.928123 44.848152 58.928123 46.973152ZM64.85 46.973152Q64.85 45.441902 65.1625 44.520027Q65.475 43.582527 66.08437 43.082527Q66.70937 42.582527 67.64687 42.582527Q68.33437 42.582527 68.85 42.863777Q69.38125 43.145027 69.725 43.676277Q70.06875 44.191902 70.25625 44.941902Q70.44375 45.691902 70.44375 46.973152Q70.44375 48.488777 70.13125 49.410652Q69.83437 50.332527 69.20937 50.848152Q68.6 51.348152 67.64687 51.348152Q66.4125 51.348152 65.69375 50.457527Q64.85 49.395027 64.85 46.973152ZM65.92812 46.973152Q65.92812 49.082527 66.42812 49.785652Q66.92812 50.488777 67.64687 50.488777Q68.38125 50.488777 68.86562 49.785652Q69.36562 49.082527 69.36562 46.973152Q69.36562 44.848152 68.86562 44.160652Q68.38125 43.457527 67.63125 43.457527Q66.9125 43.457527 66.475 44.066902Q65.92812 44.848152 65.92812 46.973152ZM71.85 46.973152Q71.85 45.441902 72.1625 44.520027Q72.475 43.582527 73.08437 43.082527Q73.70937 42.582527 74.64687 42.582527Q75.33437 42.582527 75.85 42.863777Q76.38125 43.145027 76.725 43.676277Q77.06875 44.191902 77.25625 44.941902Q77.44375 45.691902 77.44375 46.973152Q77.44375 48.488777 77.13125 49.410652Q76.83437 50.332527 76.20937 50.848152Q75.6 51.348152 74.64687 51.348152Q73.4125 51.348152 72.69375 50.457527Q71.85 49.395027 71.85 46.973152ZM72.92812 46.973152Q72.92812 49.082527 73.42812 49.785652Q73.92812 50.488777 74.64687 50.488777Q75.38125 50.488777 75.86562 49.785652Q76.36562 49.082527 76.36562 46.973152Q76.36562 44.848152 75.86562 44.160652Q75.38125 43.457527 74.63125 43.457527Q73.9125 43.457527 73.475 44.066902Q72.92812 44.848152 72.92812 46.973152ZM78.85 46.973152Q78.85 45.441902 79.1625 44.520027Q79.475 43.582527 80.08437 43.082527Q80.70937 42.582527 81.64687 42.582527Q82.33437 42.582527 82.85 42.863777Q83.38125 43.145027 83.725 43.676277Q84.06875 44.191902 84.25625 44.941902Q84.44375 45.691902 84.44375 46.973152Q84.44375 48.488777 84.13125 49.410652Q83.83437 50.332527 83.20937 50.848152Q82.6 51.348152 81.64687 51.348152Q80.4125 51.348152 79.69375 50.457527Q78.85 49.395027 78.85 46.973152ZM79.92812 46.973152Q79.92812 49.082527 80.42812 49.785652Q80.92812 50.488777 81.64687 50.488777Q82.38125 50.488777 82.86562 49.785652Q83.36562 49.082527 83.36562 46.973152Q83.36562 44.848152 82.86562 44.160652Q82.38125 43.457527 81.63125 43.457527Q80.9125 43.457527 80.475 44.066902Q79.92812 44.848152 79.92812 46.973152ZM85.85 46.973152Q85.85 45.441902 86.1625 44.520027Q86.475 43.582527 87.08437 43.082527Q87.70937 42.582527 88.64687 42.582527Q89.33437 42.582527 89.85 42.863777Q90.38125 43.145027 90.725 43.676277Q91.06875 44.191902 91.25625 44.941902Q91.44375 45.691902 91.44375 46.973152Q91.44375 48.488777 91.13125 49.410652Q90.83437 50.332527 90.20937 50.848152Q89.6 51.348152 88.64687 51.348152Q87.4125 51.348152 86.69375 50.457527Q85.85 49.395027 85.85 46.973152ZM86.92812 46.973152Q86.92812 49.082527 87.42812 49.785652Q87.92812 50.488777 88.64687 50.488777Q89.38125 50.488777 89.86562 49.785652Q90.36562 49.082527 90.36562 46.973152Q90.36562 44.848152 89.86562 44.160652Q89.38125 43.457527 88.63125 43.457527Q87.9125 43.457527 87.475 44.066902Q86.92812 44.848152 86.92812 46.973152Z" fill-rule="nonzero"/><path fill="#000000" d="M150.52483 313.65L149.47795 313.65L149.47795 306.93124Q149.08733 307.29062 148.46233 307.66562Q147.85295 308.025 147.36858 308.19687L147.36858 307.18124Q148.24358 306.75937 148.89983 306.18124Q149.5717 305.5875 149.85295 305.025L150.52483 305.025L150.52483 313.65Z" fill-rule="nonzero"/><path fill="#000000" d="M219.0749 312.63437L219.0749 313.65L213.3874 313.65Q213.3874 313.275 213.5124 312.91562Q213.73116 312.3375 214.1999 311.775Q214.68428 311.2125 215.59053 310.47812Q216.99678 309.32187 217.48116 308.65Q217.98116 307.97812 217.98116 307.38437Q217.98116 306.75937 217.52803 306.3375Q217.0749 305.9 216.35616 305.9Q215.59053 305.9 215.1374 306.35312Q214.68428 306.80624 214.66866 307.61874L213.59053 307.50937Q213.6999 306.29062 214.41866 305.66562Q215.15303 305.025 216.3874 305.025Q217.62178 305.025 218.34053 305.7125Q219.05928 306.4 219.05928 307.41562Q219.05928 307.93124 218.84053 308.43124Q218.6374 308.91562 218.1374 309.47812Q217.65303 310.025 216.52803 310.97812Q215.5749 311.775 215.29366 312.07187Q215.02803 312.35312 214.85616 312.63437L219.0749 312.63437Z" fill-rule="nonzero"/><path fill="#000000" d="M280.5 311.38437L281.5625 311.24374Q281.73438 312.13437 282.17188 312.54062Q282.60938 312.93124 283.23438 312.93124Q283.98438 312.93124 284.5 312.41562Q285.01562 311.9 285.01562 311.13437Q285.01562 310.41562 284.53125 309.94687Q284.0625 309.4625 283.32812 309.4625Q283.03125 309.4625 282.57812 309.5875L282.70312 308.65Q282.8125 308.66562 282.875 308.66562Q283.54688 308.66562 284.07812 308.32187Q284.625 307.9625 284.625 307.22812Q284.625 306.65 284.23438 306.275Q283.84375 305.88437 283.21875 305.88437Q282.60938 305.88437 282.1875 306.275Q281.78125 306.66562 281.67188 307.43124L280.60938 307.24374Q280.79688 306.19687 281.48438 305.61874Q282.17188 305.025 283.1875 305.025Q283.89062 305.025 284.48438 305.3375Q285.07812 305.63437 285.39062 306.15Q285.70312 306.66562 285.70312 307.25937Q285.70312 307.80624 285.40625 308.275Q285.10938 308.72812 284.53125 308.99374Q285.28125 309.16562 285.70312 309.72812Q286.125 310.275 286.125 311.11874Q286.125 312.24374 285.29688 313.025Q284.48438 313.80624 283.23438 313.80624Q282.10938 313.80624 281.35938 313.13437Q280.60938 312.44687 280.5 311.38437Z" fill-rule="nonzero"/><path fill="#000000" d="M350.84695 313.65L350.84695 311.5875L347.1282 311.5875L347.1282 310.61874L351.05008 305.05624L351.90945 305.05624L351.90945 310.61874L353.0657 310.61874L353.0657 311.5875L351.90945 311.5875L351.90945 313.65L350.84695 313.65ZM350.84695 310.61874L350.84695 306.75937L348.15945 310.61874L350.84695 310.61874Z" fill-rule="nonzero"/><path fill="#000000" d="M414.44394 311.4L415.5533 311.30624Q415.6783 312.11874 416.1158 312.525Q416.56894 312.93124 417.20956 312.93124Q417.95956 312.93124 418.4908 312.35312Q419.02206 311.775 419.02206 310.8375Q419.02206 309.93124 418.50644 309.41562Q418.00644 308.88437 417.1783 308.88437Q416.6783 308.88437 416.25644 309.11874Q415.8502 309.35312 415.6158 309.7125L414.63144 309.5875L415.45956 305.18124L419.7408 305.18124L419.7408 306.18124L416.3033 306.18124L415.8502 308.49374Q416.6158 307.94687 417.45956 307.94687Q418.58456 307.94687 419.3502 308.72812Q420.13144 309.50937 420.13144 310.74374Q420.13144 311.9 419.45956 312.75937Q418.63144 313.79062 417.20956 313.79062Q416.0377 313.79062 415.2877 313.13437Q414.5533 312.47812 414.44394 311.4Z" fill-rule="nonzero"/></svg>